<svg xmlns="http://www.w3.org/2000/svg" viewBox="0 0 1407.74 312.39"><defs><style>.cls-1{font-size:172.84px;font-family:Montserrat-ExtraBold, Montserrat;font-weight:800;letter-spacing:0.06em;}.cls-1,.cls-2{fill:#26b2a7;}.cls-3{fill:#fff;}.cls-4{opacity:0.55;}</style></defs><g id="Calque_2" data-name="Calque 2"><g id="graphics"><text class="cls-1" transform="translate(391.99 229.88)">SOUMAIRI</text><rect class="cls-2" width="312.39" height="312.39" rx="78.58"/><path class="cls-3" d="M217.08,188.05l-112.28-42A16.61,16.61,0,0,1,94.67,136a16,16,0,0,1,8.08-19.47L215.58,60.63l4.53,9.15A21.82,21.82,0,0,1,210.24,99l-60.15,29.79,48.78,18.24a31.41,31.41,0,0,1,18.43,40.42Z"/><g class="cls-4"><path class="cls-3" d="M95.31,124.34l112.28,42a16.62,16.62,0,0,1,10.13,10.08,16.05,16.05,0,0,1-8.08,19.48L96.81,251.76l-4.53-9.15a21.83,21.83,0,0,1,9.86-29.24l60.16-29.79-48.78-18.24a31.41,31.41,0,0,1-18.43-40.42Z"/></g></g></g></svg>